<svg width="327" height="260" viewBox="0 0 327 260" fill="none" xmlns="http://www.w3.org/2000/svg"><path d="M105 47L44 170.5C81.5 144 96 143.5 127 133.5L162 62.5L189 116.5C213.5 108.5 221 103.5 240 92.5L213 34.5C202.5 13.5 187.5 0 162 0C151.5 0 123.5 1 105 47Z" fill="#D9D9D9"/><path d="M0 259.5C14 225.5 9.20731 228.803 34.5 198C59.7927 167.197 89.7452 155.001 127 146.5C164.255 137.999 185.986 132.006 219 118C240.5 108 264.5 95 277 73.5C289.5 52 275.5 37.5 275 34.5C284 40 287.993 47.215 290 56.5C292.007 65.785 290.75 70.4995 288 79C285.25 87.5005 283.752 91.4973 274.5 102.5C265.248 113.503 259.75 118.594 237.5 132.5C215.25 146.406 193.511 156.248 153 165.5C112.489 174.752 89.2503 181.75 69 199C48.7497 216.25 39.5 236 28 259.5H0Z" fill="#D9D9D9"/><path d="M48 259.5C59.5 229.5 63.4753 223.02 83 207C102.525 190.98 111.735 190.004 136 183.5C160.265 176.996 181.486 173.256 212 160C242.514 146.744 252.492 140.758 274 118.5C295.508 96.2423 300.25 81.5083 300 66.5C299.75 51.4917 296.762 37.5072 281 28.5C265.238 19.4928 241 16 220 13.5C226 9 241.248 7.74997 256 8C270.752 8.25003 274.986 9.2459 286 12.5C297.014 15.7541 300.498 17.7481 309 25.5C317.502 33.2519 322.997 41.9868 325 50.5C327.003 59.0132 327.25 63.2496 326.5 73.5C325.75 83.7504 324 91.2499 320 102.5C316 113.75 315.503 114.746 305 130.5C294.497 146.254 282.51 158.242 262 174.5C241.49 190.758 229.05 196.862 205 207.5C180.95 218.138 162.5 221.404 138 228C113.5 234.596 106 246.5 99 259.5H48Z" fill="#D9D9D9"/><path d="M231.5 208.5C253.606 197.201 263.163 189.281 280.088 175.256L281 174.5L323 259.5H279C272 259.5 256 251.5 250 242.5C244 233.5 231.5 208.5 231.5 208.5Z" fill="#D9D9D9"/></svg>