<svg width="947" height="260" viewBox="0 0 947 260" fill="none" xmlns="http://www.w3.org/2000/svg"><path d="M275 34.5C284 40 287.993 47.215 290 56.5C292.007 65.785 290.75 70.4995 288 79C285.25 87.5005 283.752 91.4973 274.5 102.5C265.248 113.503 259.75 118.594 237.5 132.5C215.25 146.406 193.511 156.248 153 165.5C112.489 174.752 89.2503 181.75 69 199C48.7497 216.25 39.5 236 28 259.5H0C14 225.5 9.20731 228.803 34.5 198C59.7927 167.197 89.7452 155.001 127 146.5C164.255 137.999 185.986 132.006 219 118C240.5 108 264.5 95 277 73.5C289.5 52 275.5 37.5 275 34.5ZM220 13.5C226 9 241.248 7.74997 256 8C270.752 8.25003 274.986 9.2459 286 12.5C297.014 15.7541 300.498 17.7481 309 25.5C317.502 33.2519 322.997 41.9868 325 50.5C327.003 59.0132 327.25 63.2496 326.5 73.5C325.75 83.7504 324 91.2499 320 102.5C316 113.75 315.503 114.746 305 130.5C294.497 146.254 282.51 158.242 262 174.5C241.49 190.758 229.05 196.862 205 207.5C180.95 218.138 162.5 221.404 138 228C113.5 234.596 106 246.5 99 259.5H48C59.5 229.5 63.4753 223.02 83 207C102.525 190.98 111.735 190.004 136 183.5C160.265 176.996 181.486 173.256 212 160C242.514 146.744 252.492 140.758 274 118.5C295.508 96.2423 300.25 81.5083 300 66.5C299.75 51.4917 296.762 37.5072 281 28.5C265.238 19.4928 241 16 220 13.5ZM323 259.5H279C272 259.5 256 251.5 250 242.5C244 233.5 231.5 208.5 231.5 208.5C253.606 197.201 263.163 189.281 280.088 175.256L281 174.5L323 259.5ZM834.283 10.7998C890.641 4.03433 939.21 41.0522 945.625 89.6396H907.595C898.431 57.5538 875.063 39.6769 834.283 43.3438C796.711 46.7223 774.717 81.3891 774.717 108.892V153.812C774.717 191.858 806.791 216.151 834.283 217.526C875.979 217.526 895.224 208.359 908.97 166.647H947C938.294 231.278 881.936 253.28 834.283 249.613C778.383 245.312 747.225 213.401 736.687 153.812C734.174 139.603 734.854 124.935 736.687 108.892C743.18 52.0533 777.008 17.6754 834.283 10.7998ZM480.553 10.3408C535.995 10.3408 567.611 43.3443 567.611 87.8066V217.068H601.518V245.487H563.029C536.454 245.487 531.871 233.111 531.871 207.442H530.039C519.5 230.361 493.841 249.613 452.145 249.613C403.576 249.613 377 222.569 377 179.481C377 130.894 409.991 108.434 460.393 108.434H530.039C530.039 86.8901 530.166 71.216 521.791 59.3877C514.002 48.3867 498.881 41.0527 480.553 41.0527C469.098 41.0527 453.825 41.5113 441.606 50.6787C437.941 53.429 423.736 62.138 423.736 83.6816H386.622C387.997 40.1361 423.278 10.3409 480.553 10.3408ZM742.456 46.5527H666.582L666.124 245.487H628.093V46.5527C628.093 29.5929 634.508 14.9248 666.582 14.9248H742.456V46.5527ZM460.393 135.936C448.479 135.936 431.984 140.061 424.652 148.771C418.479 156.104 416.405 157.48 416.405 179.481C416.405 194.608 419.874 202.976 428.318 209.734C437.482 217.068 451.686 218.902 459.476 218.902C483.76 218.902 503.005 209.735 514.918 194.608C528.275 177.649 530.039 164.355 530.039 135.936H460.393ZM162 0C187.5 0 202.5 13.5 213 34.5L240 92.5C221 103.5 213.5 108.5 189 116.5L162 62.5L127 133.5C96 143.5 81.5 144 44 170.5L105 47C123.5 1 151.5 0 162 0Z" fill="#D9D9D9"/></svg>